<svg width="1634" height="744" version="1.1" xmlns="http://www.w3.org/2000/svg" desc="Created with imagetracer.js version 1.2.6" ><path fill="rgb(0,0,0)" stroke="rgb(0,0,0)" stroke-width="1" opacity="0" d="M 0 0 L 1634 0 L 1634 744 L 0 744 L 0 0 Z M 1324 28 L 1311 36 L 1309 37 L 1309 55 L 1323 63 L 1326 63 L 1338 56 L 1339 55 L 1339 38 L 1324 28 Z M 1279 56 L 1270 61 L 1267 64 L 1267 76 L 1278 82 L 1289 76 L 1290 76 L 1290 64 L 1279 56 Z M 1370 56 L 1361 61 L 1358 64 L 1358 76 L 1369 82 L 1380 76 L 1381 76 L 1381 64 L 1370 56 Z M 1324 74 Q 1314 84 1301 90 L 1290 94 L 1269 99 L 1239 110 Q 1231 115 1231 126 L 1243 124 L 1250 124 L 1251 123 L 1259 123 L 1260 122 L 1283 121 L 1284 120 L 1301 120 L 1302 119 L 1365 120 L 1366 121 L 1398 123 L 1399 124 L 1406 124 L 1417 126 Q 1417 118 1413 114 L 1407 108 L 1348 90 L 1334 82 Q 1331 76 1324 74 Z M 1367 125 Q 1344 132 1329 146 Q 1319 154 1314 167 L 1311 177 L 1310 198 L 1309 199 L 1309 213 L 1311 223 Q 1315 233 1322 241 L 1323 245 L 1321 246 L 1314 244 Q 1306 238 1304 228 L 1301 225 L 1297 226 L 1290 232 Q 1276 244 1268 262 L 1262 279 L 1260 289 L 1260 298 L 1259 299 L 1260 319 L 1263 332 Q 1268 347 1277 358 Q 1287 371 1303 379 L 1324 375 L 1347 375 Q 1362 378 1373 386 Q 1381 393 1386 404 L 1393 432 L 1397 440 L 1410 450 L 1429 460 L 1432 471 L 1431 472 L 1431 480 Q 1429 481 1432 482 L 1447 479 L 1463 470 Q 1473 460 1479 445 Q 1487 428 1490 409 L 1483 405 L 1452 405 L 1447 404 Q 1434 401 1426 394 Q 1416 388 1412 378 Q 1411 367 1415 363 Q 1419 356 1429 354 L 1439 354 L 1451 359 L 1454 363 L 1455 375 L 1460 382 L 1454 392 L 1465 391 L 1473 387 L 1485 388 L 1486 389 L 1494 388 L 1503 385 L 1520 376 Q 1537 360 1546 335 L 1546 332 L 1527 310 L 1525 304 L 1526 294 L 1534 298 L 1538 304 Q 1539 311 1536 315 L 1536 318 L 1545 329 L 1547 329 L 1566 310 L 1564 305 L 1549 286 Q 1522 258 1492 235 L 1497 228 Q 1481 208 1459 195 L 1425 180 L 1375 166 Q 1368 162 1366 155 L 1366 146 L 1370 131 Q 1373 123 1367 125 Z M 1274 148 L 1273 149 L 1255 150 L 1225 156 L 1202 163 L 1179 172 Q 1135 191 1101 219 Q 1084 232 1075 253 L 1069 272 L 1068 289 L 1067 290 L 1068 291 L 1069 309 L 1075 328 Q 1085 349 1102 363 L 1091 408 L 1088 435 L 1087 436 L 1087 448 L 1086 449 L 1086 487 L 1087 488 L 1088 511 L 1091 524 L 1096 531 L 1107 537 L 1112 538 L 1123 538 L 1124 537 L 1168 537 L 1169 536 L 1236 537 L 1237 538 L 1254 538 L 1255 539 L 1278 540 L 1279 541 L 1287 541 L 1288 542 L 1295 542 L 1296 543 L 1320 546 L 1350 553 Q 1384 563 1413 579 L 1456 608 L 1457 609 L 1457 600 L 1454 584 Q 1449 565 1440 551 Q 1419 515 1391 486 L 1344 438 L 1261 364 Q 1258 365 1259 363 L 1256 361 L 1248 351 L 1241 338 L 1237 325 L 1236 314 L 1235 313 L 1235 297 L 1236 296 L 1236 288 L 1238 277 Q 1243 255 1251 238 Q 1274 188 1307 150 L 1301 148 L 1274 148 Z M 871 178 L 870 179 L 861 179 L 860 180 L 837 183 L 794 197 L 319 197 L 181 345 L 180 197 L 79 197 L 78 198 L 78 557 L 80 558 L 180 558 L 180 487 L 215 450 L 227 439 L 319 557 L 321 558 L 449 558 L 299 363 L 303 357 L 365 292 L 488 292 L 488 558 L 604 558 L 604 293 L 605 292 L 682 292 Q 691 274 704 260 Q 725 235 755 220 L 756 220 L 739 234 Q 712 259 696 295 L 686 324 L 682 345 L 681 365 L 680 366 L 680 386 L 681 387 L 682 407 L 689 438 Q 702 475 725 503 Q 754 536 797 555 L 833 567 L 854 571 L 873 572 L 874 573 L 907 573 L 908 572 L 928 571 L 951 567 L 975 561 Q 1018 548 1050 524 L 1050 345 L 907 345 L 907 420 L 954 420 L 954 471 L 951 473 L 934 479 L 913 483 L 882 483 L 862 479 Q 838 472 823 457 Q 808 444 799 425 L 792 404 L 790 393 L 790 383 L 789 382 L 790 358 L 793 342 Q 800 318 814 302 Q 827 286 847 277 L 868 270 L 879 268 L 888 268 L 889 267 L 906 267 L 907 268 L 916 268 L 930 271 L 947 277 L 964 286 L 1019 223 L 1024 215 Q 994 194 954 184 L 933 180 L 916 179 L 915 178 L 871 178 Z M 1071 629 L 1059 632 L 1056 634 L 1048 643 L 1044 656 Q 1042 675 1050 686 Q 1055 693 1066 695 Q 1082 697 1090 691 Q 1099 685 1101 672 Q 1104 651 1096 641 Q 1089 629 1071 629 Z M 1318 629 L 1304 633 Q 1294 640 1291 654 L 1291 671 L 1293 679 L 1297 686 Q 1302 693 1313 695 Q 1330 697 1338 690 L 1344 683 L 1348 670 L 1348 656 L 1346 647 L 1343 641 L 1334 632 L 1329 630 L 1318 629 Z M 94 630 L 86 634 L 83 637 L 80 645 L 80 650 L 83 658 L 91 664 L 104 670 L 108 675 Q 109 681 107 683 L 100 686 L 90 685 L 81 681 L 80 692 L 89 695 L 105 695 L 112 692 Q 118 689 119 681 Q 120 672 117 668 L 112 662 L 95 654 L 91 650 L 92 643 L 98 639 L 104 639 L 115 643 L 118 633 L 109 630 L 94 630 Z M 131 630 L 129 632 L 129 677 L 133 687 Q 137 693 147 695 Q 163 697 171 690 L 176 683 L 178 675 L 178 632 L 177 630 L 167 630 L 167 675 L 165 681 L 162 684 L 155 686 L 146 684 L 140 677 L 140 631 L 140 630 L 131 630 Z M 202 630 L 196 633 L 189 643 Q 188 652 191 657 L 198 663 L 213 670 L 217 676 L 216 682 L 213 685 L 209 686 Q 196 686 189 681 L 188 692 L 197 695 Q 213 697 222 691 Q 227 687 228 680 L 228 675 L 225 667 L 219 661 L 204 654 Q 198 652 200 644 L 207 639 Q 218 639 224 643 L 227 633 L 218 630 L 202 630 Z M 232 630 L 232 640 L 249 640 L 249 641 L 249 694 L 260 694 L 260 694 L 260 640 L 278 640 L 278 632 L 277 630 L 232 630 Z M 296 630 L 291 640 L 272 694 L 284 694 L 289 679 L 290 677 L 312 677 L 317 694 L 329 694 L 307 632 L 306 630 L 296 630 Z M 336 630 L 336 694 L 337 694 L 346 694 L 346 631 L 346 630 L 336 630 Z M 363 630 L 361 632 L 361 694 L 362 694 L 371 694 L 372 647 L 400 694 L 412 694 L 412 694 L 412 630 L 404 630 L 402 632 L 402 665 L 403 666 L 403 679 L 375 632 L 374 630 L 363 630 Z M 442 630 L 420 692 L 421 694 L 431 694 L 436 680 L 437 677 L 459 677 L 464 694 L 476 694 L 454 632 L 453 630 L 442 630 Z M 485 630 L 483 632 L 483 694 L 513 694 L 520 691 Q 526 688 527 680 Q 528 670 524 666 L 516 661 L 519 660 L 525 652 Q 527 642 523 638 Q 519 633 513 631 L 485 630 Z M 540 630 L 538 632 L 538 694 L 575 694 L 575 685 L 549 685 L 549 631 L 549 630 L 540 630 Z M 586 630 L 584 632 L 584 694 L 619 694 L 619 685 L 595 685 L 595 666 L 617 666 L 617 656 L 595 656 L 595 640 L 619 640 L 619 631 L 619 630 L 586 630 Z M 655 630 L 653 632 L 653 694 L 664 694 L 664 671 L 675 671 L 685 668 Q 692 663 694 653 L 693 643 L 691 639 Q 687 633 680 631 L 655 630 Z M 705 630 L 705 694 L 741 694 L 741 685 L 715 685 L 715 631 L 715 630 L 705 630 Z M 765 630 L 743 692 L 744 694 L 754 694 L 759 680 L 760 677 L 782 677 L 787 694 L 799 694 L 777 632 L 776 630 L 765 630 Z M 816 630 L 810 633 Q 805 636 803 643 L 803 652 L 807 660 L 827 670 L 831 676 L 830 682 L 827 685 L 823 686 L 812 685 L 803 681 L 802 692 L 811 695 Q 829 698 837 690 L 840 686 L 842 678 L 841 671 L 838 666 L 833 661 L 818 654 Q 812 652 814 644 L 821 639 Q 831 639 837 643 Q 840 640 840 633 L 832 630 L 816 630 Z M 847 630 L 845 632 L 845 640 L 863 640 L 863 641 L 863 694 L 874 694 L 874 694 L 874 640 L 892 640 L 892 632 L 891 630 L 847 630 Z M 900 630 L 900 694 L 911 694 L 911 694 L 911 632 L 910 630 L 900 630 Z M 944 630 L 934 635 Q 925 641 923 654 Q 920 676 929 687 Q 934 693 944 695 Q 957 697 966 693 L 967 692 L 967 683 L 953 686 L 946 685 L 942 683 L 936 677 L 934 670 Q 932 652 939 645 L 949 639 L 955 639 L 966 643 L 969 633 Q 960 628 944 630 Z M 1011 630 L 1006 632 Q 1000 635 998 642 Q 996 653 1001 659 L 1008 664 L 1023 671 L 1026 677 L 1025 682 L 1023 684 L 1017 686 L 1007 685 L 998 681 L 997 692 L 1006 695 L 1022 695 L 1029 692 L 1036 683 Q 1038 672 1034 668 L 1026 660 L 1014 655 L 1008 649 L 1010 641 L 1016 639 L 1029 641 L 1032 643 L 1035 633 Q 1027 628 1011 630 Z M 1115 630 L 1113 632 L 1113 694 L 1149 694 L 1149 685 L 1124 685 L 1124 632 L 1123 630 L 1115 630 Z M 1159 630 L 1157 632 L 1157 672 Q 1160 673 1158 680 L 1162 688 Q 1166 693 1175 695 Q 1190 697 1198 691 Q 1204 686 1206 678 L 1206 631 L 1206 630 L 1197 630 L 1195 632 L 1195 677 L 1194 680 L 1190 684 L 1183 686 L 1173 683 L 1168 675 L 1168 631 L 1168 630 L 1159 630 Z M 1214 630 L 1214 640 L 1231 640 L 1231 641 L 1231 694 L 1242 694 L 1242 694 L 1242 640 L 1260 640 L 1260 632 L 1259 630 L 1214 630 Z M 1270 630 L 1268 632 L 1268 694 L 1279 694 L 1279 694 L 1279 632 L 1278 630 L 1270 630 Z M 1360 630 L 1360 694 L 1361 694 L 1370 694 L 1370 651 L 1369 650 L 1370 646 L 1396 692 L 1399 694 L 1411 694 L 1411 631 L 1411 630 L 1403 630 L 1401 632 L 1401 678 L 1402 679 L 1373 632 L 1373 630 L 1360 630 Z M 1436 630 L 1431 632 L 1423 642 Q 1422 651 1425 657 L 1432 663 L 1447 670 L 1451 676 L 1450 682 L 1448 684 L 1442 686 L 1432 685 L 1423 681 L 1422 692 L 1431 695 L 1447 695 L 1457 690 L 1461 683 Q 1463 671 1458 666 Q 1450 658 1439 655 L 1433 648 L 1434 644 L 1441 639 Q 1451 639 1457 643 Q 1460 640 1460 633 L 1452 630 L 1436 630 Z " /><path fill="rgb(0,0,0)" stroke="rgb(0,0,0)" stroke-width="1" opacity="0" d="M 1423.5 220 L 1464 233 L 1460 240.5 L 1460 244.5 L 1466 251.5 L 1466 253.5 L 1463.5 255 L 1448.5 242 L 1437.5 235 L 1431.5 233 L 1426 227.5 L 1423.5 220 Z " /><path fill="rgb(0,0,0)" stroke="rgb(0,0,0)" stroke-width="1" opacity="0" d="M 1069.5 639 Q 1082.9 638.1 1087 646.5 L 1090 656.5 L 1090 668.5 L 1086 679.5 L 1082.5 683 L 1078.5 685 L 1071.5 686 L 1066.5 685 L 1060 680.5 L 1056 672.5 L 1055 659.5 L 1057 649.5 L 1062.5 642 L 1069.5 639 Z " /><path fill="rgb(0,0,0)" stroke="rgb(0,0,0)" stroke-width="1" opacity="0" d="M 1316.5 639 Q 1329 638 1333 645.5 L 1336 652.5 L 1337 665.5 L 1335 675.5 L 1329.5 683 L 1325.5 685 L 1318.5 686 L 1309.5 683 L 1306 679.5 L 1302 667.5 L 1302 656.5 L 1306 645.5 L 1310.5 641 L 1316.5 639 Z " /><path fill="rgb(0,0,0)" stroke="rgb(0,0,0)" stroke-width="1" opacity="0" d="M 494 640 L 506.5 640 L 513 643.5 L 514 650.5 L 509.5 656 L 494 657 L 494 640 Z " /><path fill="rgb(0,0,0)" stroke="rgb(0,0,0)" stroke-width="1" opacity="0" d="M 664 640 Q 677.5 637.7 682 645.5 L 683 651.5 L 682 655.5 L 677.5 660 L 664 661 L 664 640 Z " /><path fill="rgb(0,0,0)" stroke="rgb(0,0,0)" stroke-width="1" opacity="0" d="M 300.5 642 L 308 667 L 293.5 667 L 293 664.5 L 300.5 642 Z " /><path fill="rgb(0,0,0)" stroke="rgb(0,0,0)" stroke-width="1" opacity="0" d="M 447.5 642 L 456 666.5 L 440 667 L 447.5 642 Z " /><path fill="rgb(0,0,0)" stroke="rgb(0,0,0)" stroke-width="1" opacity="0" d="M 770.5 642 L 779 666.5 L 763 667 L 770.5 642 Z " /><path fill="rgb(0,0,0)" stroke="rgb(0,0,0)" stroke-width="1" opacity="0" d="M 494 666 L 508.5 666 L 515 670.5 L 516 676.5 L 512.5 683 L 507.5 685 L 494 685 L 494 666 Z " /><path fill="rgb(236,134,53)" stroke="rgb(236,134,53)" stroke-width="1" opacity="0.9803921568627451" d="M 1323.5 28 L 1339 37.5 L 1339 54.5 L 1337.5 56 L 1325.5 63 L 1322.5 63 L 1309 54.5 L 1309 36.5 L 1310.5 36 L 1323.5 28 Z " /><path fill="rgb(236,134,53)" stroke="rgb(236,134,53)" stroke-width="1" opacity="0.9803921568627451" d="M 1278.5 56 L 1290 63.5 L 1290 75.5 L 1288.5 76 L 1277.5 82 L 1267 76 L 1267 63.5 L 1269.5 61 L 1278.5 56 Z " /><path fill="rgb(236,134,53)" stroke="rgb(236,134,53)" stroke-width="1" opacity="0.9803921568627451" d="M 1369.5 56 L 1381 63.5 L 1381 75.5 L 1379.5 76 L 1368.5 82 L 1358 76 L 1358 63.5 L 1360.5 61 L 1369.5 56 Z " /><path fill="rgb(236,134,53)" stroke="rgb(236,134,53)" stroke-width="1" opacity="0.9803921568627451" d="M 1323.5 74 Q 1330.8 75.8 1333.5 82 L 1347.5 90 L 1406.5 108 L 1413 113.5 Q 1417.2 118 1417 126 L 1405.5 124 L 1398.5 124 L 1397.5 123 L 1365.5 121 L 1364.5 120 L 1301.5 119 L 1300.5 120 L 1283.5 120 L 1282.5 121 L 1259.5 122 L 1258.5 123 L 1250.5 123 L 1249.5 124 L 1242.5 124 L 1231 126 Q 1230.9 114.8 1238.5 110 L 1268.5 99 L 1289.5 94 L 1300.5 90 Q 1314.1 84.1 1323.5 74 Z " /><path fill="rgb(236,134,53)" stroke="rgb(236,134,53)" stroke-width="1" opacity="0.9803921568627451" d="M 1366.5 125 Q 1372.6 123.2 1370 130.5 L 1366 145.5 L 1366 154.5 Q 1368.1 162.4 1374.5 166 L 1424.5 180 L 1458.5 195 Q 1480.9 208.1 1497 227.5 L 1492 235 Q 1522 258.1 1549 285.5 L 1564 304.5 L 1566 309.5 L 1546.5 329 L 1545 329 L 1536 317.5 L 1536 314.5 Q 1539.2 311.2 1538 303.5 L 1533.5 298 L 1526 294 L 1525 303.5 L 1527 309.5 L 1546 331.5 L 1546 334.5 Q 1537.3 359.8 1519.5 376 L 1502.5 385 L 1493.5 388 L 1485.5 389 L 1484.5 388 L 1472.5 387 L 1464.5 391 L 1454 392 L 1460 381.5 L 1455 374.5 L 1454 362.5 L 1450.5 359 L 1438.5 354 L 1428.5 354 Q 1419.4 355.9 1415 362.5 Q 1410.5 367 1412 377.5 Q 1416.3 388.3 1425.5 394 Q 1433.8 401.2 1446.5 404 L 1451.5 405 L 1482.5 405 L 1490 409 Q 1486.6 428.2 1479 444.5 Q 1473.3 459.8 1462.5 470 L 1446.5 479 L 1431.5 482 Q 1428.8 480.8 1431 479.5 L 1431 471.5 L 1432 470.5 L 1429 460 L 1409.5 450 L 1397 439.5 L 1393 431.5 L 1386 403.5 Q 1381.2 392.8 1372.5 386 Q 1362 378 1346.5 375 L 1323.5 375 L 1302.5 379 Q 1287.4 370.6 1277 357.5 Q 1267.9 346.6 1263 331.5 L 1260 318.5 L 1259 298.5 L 1260 297.5 L 1260 288.5 L 1262 278.5 L 1268 261.5 Q 1276.2 244.2 1289.5 232 L 1296.5 226 L 1300.5 225 L 1304 227.5 Q 1306.1 238.4 1313.5 244 L 1320.5 246 L 1323 245 L 1322 240.5 Q 1314.7 233.3 1311 222.5 L 1309 212.5 L 1309 198.5 L 1310 197.5 L 1311 176.5 L 1314 166.5 Q 1319.2 154.2 1328.5 146 Q 1344.1 132.1 1366.5 125 Z M 1424 220 L 1426 228 L 1432 233 L 1438 235 L 1449 242 L 1464 255 L 1466 254 L 1466 252 L 1460 245 L 1460 241 L 1464 233 L 1424 220 Z " /><path fill="rgb(236,134,53)" stroke="rgb(236,134,53)" stroke-width="1" opacity="0.9803921568627451" d="M 1273.5 148 L 1300.5 148 L 1304 149.5 L 1291.5 151 L 1272.5 156 L 1236.5 172 Q 1201 192.5 1175 222.5 Q 1125.8 279.3 1103 362.5 L 1116.5 377 Q 1145.5 403 1181.5 422 L 1216.5 440 L 1284.5 471 Q 1318.9 487.1 1350.5 506 Q 1392.6 530.9 1425 565.5 Q 1442.5 584.5 1456 607.5 L 1454.5 608 Q 1411.3 571.2 1349.5 553 L 1319.5 546 L 1295.5 543 L 1294.5 542 L 1287.5 542 L 1286.5 541 L 1278.5 541 L 1277.5 540 L 1254.5 539 L 1253.5 538 L 1236.5 538 L 1235.5 537 L 1168.5 536 L 1167.5 537 L 1123.5 537 L 1122.5 538 L 1111.5 538 L 1106.5 537 L 1096 531 L 1091 523.5 L 1088 510.5 L 1087 487.5 L 1086 486.5 L 1086 448.5 L 1087 447.5 L 1087 435.5 L 1088 434.5 L 1091 407.5 L 1102 362.5 Q 1084.9 348.6 1075 327.5 L 1069 308.5 L 1068 290.5 L 1067 289.5 L 1068 288.5 L 1069 271.5 L 1075 252.5 Q 1084.3 232.3 1100.5 219 Q 1135.1 191.1 1178.5 172 L 1201.5 163 L 1224.5 156 L 1254.5 150 L 1272.5 149 L 1273.5 148 Z " /><path fill="rgb(101,101,101)" stroke="rgb(101,101,101)" stroke-width="1" opacity="0.9215686274509803" d="M 1070.5 629 Q 1089.3 628.7 1096 640.5 Q 1103.5 651 1101 671.5 Q 1098.7 684.7 1089.5 691 Q 1081.5 697 1065.5 695 Q 1055.4 692.6 1050 685.5 Q 1042.3 675.2 1044 655.5 L 1048 642.5 L 1055.5 634 L 1058.5 632 L 1070.5 629 Z M 1070 639 L 1063 642 L 1057 650 L 1055 660 L 1056 673 L 1060 681 L 1067 685 L 1072 686 L 1079 685 L 1083 683 L 1086 680 L 1090 669 L 1090 657 L 1087 647 Q 1083 638 1070 639 Z " /><path fill="rgb(101,101,101)" stroke="rgb(101,101,101)" stroke-width="1" opacity="0.9215686274509803" d="M 1317.5 629 L 1328.5 630 L 1333.5 632 L 1343 640.5 L 1346 646.5 L 1348 655.5 L 1348 669.5 L 1344 682.5 L 1337.5 690 Q 1329.7 697.2 1312.5 695 Q 1302.1 692.9 1297 685.5 L 1293 678.5 L 1291 670.5 L 1291 653.5 Q 1293.6 639.6 1303.5 633 L 1317.5 629 Z M 1317 639 L 1311 641 L 1306 646 L 1302 657 L 1302 668 L 1306 680 L 1310 683 L 1319 686 L 1326 685 L 1330 683 L 1335 676 L 1337 666 L 1336 653 L 1333 646 Q 1329 638 1317 639 Z " /><path fill="rgb(101,101,101)" stroke="rgb(101,101,101)" stroke-width="1" opacity="0.9215686274509803" d="M 93.5 630 L 108.5 630 L 118 633 L 114.5 643 L 103.5 639 L 97.5 639 L 92 642.5 L 91 649.5 L 94.5 654 L 111.5 662 L 117 667.5 Q 120.1 671.9 119 680.5 Q 117.6 688.6 111.5 692 L 104.5 695 L 88.5 695 L 80 691.5 L 80.5 681 L 89.5 685 L 99.5 686 L 107 683 Q 108.8 680.6 108 674.5 L 103.5 670 L 90.5 664 L 83 657.5 L 80 649.5 L 80 644.5 L 83 636.5 L 85.5 634 L 93.5 630 Z " /><path fill="rgb(101,101,101)" stroke="rgb(101,101,101)" stroke-width="1" opacity="0.9215686274509803" d="M 130.5 630 L 139.5 630 L 140 630.5 L 140 676.5 L 145.5 684 L 154.5 686 L 161.5 684 L 165 680.5 L 167 674.5 L 167 630 L 176.5 630 L 178 631.5 L 178 674.5 L 176 682.5 L 170.5 690 Q 163.3 697.3 146.5 695 Q 137.3 693.3 133 686.5 L 129 676.5 L 129 631.5 L 130.5 630 Z " /><path fill="rgb(101,101,101)" stroke="rgb(101,101,101)" stroke-width="1" opacity="0.9215686274509803" d="M 201.5 630 L 217.5 630 L 227 633 L 224 643 Q 217.8 639 206.5 639 L 200 643.5 Q 198.3 652.3 203.5 654 L 218.5 661 L 225 666.5 L 228 674.5 L 228 679.5 Q 226.5 687.1 221.5 691 Q 213.5 697.5 196.5 695 L 188 692 L 188.5 681 Q 195.9 686.1 208.5 686 L 212.5 685 L 216 681.5 L 217 675.5 L 212.5 670 L 197.5 663 L 191 656.5 Q 187.7 651.8 189 642.5 L 195.5 633 L 201.5 630 Z " /><path fill="rgb(101,101,101)" stroke="rgb(101,101,101)" stroke-width="1" opacity="0.9215686274509803" d="M 232 630 L 276.5 630 L 278 631.5 L 278 640 L 260 640 L 260 693.5 L 259.5 694 L 249 694 L 249 640.5 L 248.5 640 L 232 640 L 232 630 Z " /><path fill="rgb(101,101,101)" stroke="rgb(101,101,101)" stroke-width="1" opacity="0.9215686274509803" d="M 295.5 630 L 305.5 630 L 307 631.5 L 329 693.5 L 317 694 L 312 677 L 289.5 677 L 289 678.5 L 284 694 L 272 693.5 L 291 639.5 L 295.5 630 Z M 301 642 L 293 665 L 294 667 L 308 667 L 301 642 Z " /><path fill="rgb(101,101,101)" stroke="rgb(101,101,101)" stroke-width="1" opacity="0.9215686274509803" d="M 336 630 L 345.5 630 L 346 630.5 L 346 694 L 336.5 694 L 336 693.5 L 336 630 Z " /><path fill="rgb(101,101,101)" stroke="rgb(101,101,101)" stroke-width="1" opacity="0.9215686274509803" d="M 362.5 630 L 373.5 630 L 375 631.5 L 402.5 679 L 403 665.5 L 402 664.5 L 402 631.5 L 403.5 630 L 412 630 L 412 693.5 L 411.5 694 L 399.5 694 L 371.5 647 L 371 694 L 361.5 694 L 361 693.5 L 361 631.5 L 362.5 630 Z " /><path fill="rgb(101,101,101)" stroke="rgb(101,101,101)" stroke-width="1" opacity="0.9215686274509803" d="M 442 630 L 452.5 630 L 454 631.5 L 476 693.5 L 464 694 L 459 677 L 436.5 677 L 436 679.5 L 431 694 L 420.5 694 L 420 691.5 L 442 630 Z M 448 642 L 440 667 L 456 667 L 448 642 Z " /><path fill="rgb(101,101,101)" stroke="rgb(101,101,101)" stroke-width="1" opacity="0.9215686274509803" d="M 484.5 630 L 512.5 631 Q 519.4 632.5 523 637.5 Q 526.7 641.8 525 651.5 L 518.5 660 L 516 660.5 L 524 665.5 Q 528.3 669.7 527 679.5 Q 525.6 687.6 519.5 691 L 512.5 694 L 483 694 L 483 631.5 L 484.5 630 Z M 494 640 L 494 657 L 510 656 L 514 651 L 513 644 L 507 640 L 494 640 Z M 494 666 L 494 685 L 508 685 L 513 683 L 516 677 L 515 671 L 509 666 L 494 666 Z " /><path fill="rgb(101,101,101)" stroke="rgb(101,101,101)" stroke-width="1" opacity="0.9215686274509803" d="M 539.5 630 L 548.5 630 L 549 630.5 L 549 685 L 575 685 L 575 694 L 538 694 L 538 631.5 L 539.5 630 Z " /><path fill="rgb(101,101,101)" stroke="rgb(101,101,101)" stroke-width="1" opacity="0.9215686274509803" d="M 585.5 630 L 618.5 630 L 619 630.5 L 619 640 L 595 640 L 595 656 L 617 656 L 617 666 L 595 666 L 595 685 L 619 685 L 619 694 L 584 694 L 584 631.5 L 585.5 630 Z " /><path fill="rgb(101,101,101)" stroke="rgb(101,101,101)" stroke-width="1" opacity="0.9215686274509803" d="M 654.5 630 L 679.5 631 Q 687.2 632.9 691 638.5 L 693 642.5 L 694 652.5 Q 692.4 663.4 684.5 668 L 674.5 671 L 664 671 L 664 694 L 653 694 L 653 631.5 L 654.5 630 Z M 664 640 L 664 661 L 678 660 L 682 656 L 683 652 L 682 646 Q 678 638 664 640 Z " /><path fill="rgb(101,101,101)" stroke="rgb(101,101,101)" stroke-width="1" opacity="0.9215686274509803" d="M 705 630 L 714.5 630 L 715 630.5 L 715 685 L 741 685 L 741 694 L 705 694 L 705 630 Z " /><path fill="rgb(101,101,101)" stroke="rgb(101,101,101)" stroke-width="1" opacity="0.9215686274509803" d="M 765 630 L 775.5 630 L 777 631.5 L 799 693.5 L 787 694 L 782 677 L 759.5 677 L 759 679.5 L 754 694 L 743.5 694 L 743 691.5 L 765 630 Z M 771 642 L 763 667 L 779 667 L 771 642 Z " /><path fill="rgb(101,101,101)" stroke="rgb(101,101,101)" stroke-width="1" opacity="0.9215686274509803" d="M 815.5 630 L 831.5 630 L 840 633 Q 840.3 639.6 836.5 643 Q 830.9 638.6 820.5 639 L 814 643.5 Q 812.3 652.3 817.5 654 L 832.5 661 L 838 665.5 L 841 670.5 L 842 677.5 L 840 685.5 L 836.5 690 Q 828.7 697.7 810.5 695 L 802 692 L 802.5 681 L 811.5 685 L 822.5 686 L 826.5 685 L 830 681.5 L 831 675.5 L 826.5 670 L 807 660 L 803 651.5 L 803 642.5 Q 804.5 636 809.5 633 L 815.5 630 Z " /><path fill="rgb(101,101,101)" stroke="rgb(101,101,101)" stroke-width="1" opacity="0.9215686274509803" d="M 846.5 630 L 890.5 630 L 892 631.5 L 892 640 L 874 640 L 874 693.5 L 873.5 694 L 863 694 L 863 640.5 L 862.5 640 L 845 640 L 845 631.5 L 846.5 630 Z " /><path fill="rgb(101,101,101)" stroke="rgb(101,101,101)" stroke-width="1" opacity="0.9215686274509803" d="M 900 630 L 909.5 630 L 911 631.5 L 911 693.5 L 910.5 694 L 900 694 L 900 630 Z " /><path fill="rgb(101,101,101)" stroke="rgb(101,101,101)" stroke-width="1" opacity="0.9215686274509803" d="M 943.5 630 Q 960.2 628.2 969 633 L 966 643 L 954.5 639 L 948.5 639 L 939 644.5 Q 931.8 652.3 934 669.5 L 936 676.5 L 941.5 683 L 945.5 685 L 952.5 686 L 967 683 L 967 691.5 L 965.5 693 Q 957.2 696.7 943.5 695 Q 934.1 692.9 929 686.5 Q 920.1 675.9 923 653.5 Q 925.4 641.4 933.5 635 L 943.5 630 Z " /><path fill="rgb(101,101,101)" stroke="rgb(101,101,101)" stroke-width="1" opacity="0.9215686274509803" d="M 1010.5 630 Q 1026.5 628.3 1035 633 L 1031.5 643 L 1028.5 641 L 1015.5 639 L 1010 641 L 1008 648.5 L 1013.5 655 L 1025.5 660 L 1034 667.5 Q 1037.8 672.2 1036 682.5 L 1028.5 692 L 1021.5 695 L 1005.5 695 L 997 691.5 L 997.5 681 L 1006.5 685 L 1016.5 686 L 1022.5 684 L 1025 681.5 L 1026 676.5 L 1022.5 671 L 1007.5 664 L 1001 658.5 Q 996.2 653.3 998 641.5 Q 999.6 634.6 1005.5 632 L 1010.5 630 Z " /><path fill="rgb(101,101,101)" stroke="rgb(101,101,101)" stroke-width="1" opacity="0.9215686274509803" d="M 1114.5 630 L 1122.5 630 L 1124 631.5 L 1124 685 L 1149 685 L 1149 694 L 1113 694 L 1113 631.5 L 1114.5 630 Z " /><path fill="rgb(101,101,101)" stroke="rgb(101,101,101)" stroke-width="1" opacity="0.9215686274509803" d="M 1158.5 630 L 1167.5 630 L 1168 630.5 L 1168 674.5 L 1172.5 683 L 1182.5 686 L 1189.5 684 L 1194 679.5 L 1195 676.5 L 1195 631.5 L 1196.5 630 L 1205.5 630 L 1206 630.5 L 1206 677.5 Q 1203.9 686.4 1197.5 691 Q 1190.2 697.2 1174.5 695 Q 1166.3 693.2 1162 687.5 L 1158 679.5 Q 1159.7 673.3 1157 671.5 L 1157 631.5 L 1158.5 630 Z " /><path fill="rgb(101,101,101)" stroke="rgb(101,101,101)" stroke-width="1" opacity="0.9215686274509803" d="M 1214 630 L 1258.5 630 L 1260 631.5 L 1260 640 L 1242 640 L 1242 693.5 L 1241.5 694 L 1231 694 L 1231 640.5 L 1230.5 640 L 1214 640 L 1214 630 Z " /><path fill="rgb(101,101,101)" stroke="rgb(101,101,101)" stroke-width="1" opacity="0.9215686274509803" d="M 1269.5 630 L 1277.5 630 L 1279 631.5 L 1279 693.5 L 1278.5 694 L 1268 694 L 1268 631.5 L 1269.5 630 Z " /><path fill="rgb(101,101,101)" stroke="rgb(101,101,101)" stroke-width="1" opacity="0.9215686274509803" d="M 1360 630 L 1372.5 630 L 1373 631.5 L 1400.5 678 L 1401 631.5 L 1402.5 630 L 1410.5 630 L 1411 630.5 L 1411 694 L 1398.5 694 L 1396 691.5 L 1369.5 646 L 1369 649.5 L 1370 650.5 L 1370 694 L 1360.5 694 L 1360 693.5 L 1360 630 Z " /><path fill="rgb(101,101,101)" stroke="rgb(101,101,101)" stroke-width="1" opacity="0.9215686274509803" d="M 1435.5 630 L 1451.5 630 L 1460 633 Q 1460.3 639.6 1456.5 643 Q 1450.9 638.6 1440.5 639 L 1434 643.5 L 1433 647.5 L 1438.5 655 Q 1450.5 658 1458 665.5 Q 1462.8 670.7 1461 682.5 L 1457 690 L 1446.5 695 L 1430.5 695 L 1422 691.5 L 1422.5 681 L 1431.5 685 L 1441.5 686 L 1447.5 684 L 1450 681.5 L 1451 675.5 L 1446.5 670 L 1431.5 663 L 1425 656.5 Q 1421.6 651.4 1423 641.5 L 1430.5 632 L 1435.5 630 Z " /><path fill="rgb(58,59,61)" stroke="rgb(58,59,61)" stroke-width="1" opacity="0.9921568627450981" d="M 870.5 178 L 874 178.5 L 870.5 179 L 870.5 178 Z " /><path fill="rgb(58,59,61)" stroke="rgb(58,59,61)" stroke-width="1" opacity="0.9921568627450981" d="M 911.5 178 L 915 178.5 L 911.5 179 L 911.5 178 Z " /><path fill="rgb(58,59,61)" stroke="rgb(58,59,61)" stroke-width="1" opacity="0.9921568627450981" d="M 860.5 179 L 863 179.5 L 860.5 180 L 860.5 179 Z " /><path fill="rgb(58,59,61)" stroke="rgb(58,59,61)" stroke-width="1" opacity="0.9921568627450981" d="M 922.5 179 L 925 179.5 L 922.5 180 L 922.5 179 Z " /><path fill="rgb(58,59,61)" stroke="rgb(58,59,61)" stroke-width="1" opacity="0.9921568627450981" d="M 853.5 180 L 858 180.5 L 853.5 181 L 853.5 180 Z " /><path fill="rgb(58,59,61)" stroke="rgb(58,59,61)" stroke-width="1" opacity="0.9921568627450981" d="M 846.5 181 L 849 181.5 L 846.5 182 L 846.5 181 Z " /><path fill="rgb(58,59,61)" stroke="rgb(58,59,61)" stroke-width="1" opacity="0.9921568627450981" d="M 934.5 181 L 939 181.5 L 934.5 182 L 934.5 181 Z " /><path fill="rgb(58,59,61)" stroke="rgb(58,59,61)" stroke-width="1" opacity="0.9921568627450981" d="M 841.5 182 L 844 182.5 L 841.5 183 L 841.5 182 Z " /><path fill="rgb(58,59,61)" stroke="rgb(58,59,61)" stroke-width="1" opacity="0.9921568627450981" d="M 946.5 183 L 949 183.5 L 946.5 184 L 946.5 183 Z " /><path fill="rgb(58,59,61)" stroke="rgb(58,59,61)" stroke-width="1" opacity="0.9921568627450981" d="M 832.5 184 L 835 184.5 L 832.5 185 L 832.5 184 Z " /><path fill="rgb(58,59,61)" stroke="rgb(58,59,61)" stroke-width="1" opacity="0.9921568627450981" d="M 828.5 185 L 831 185.5 L 828.5 186 L 828.5 185 Z " /><path fill="rgb(58,59,61)" stroke="rgb(58,59,61)" stroke-width="1" opacity="0.9921568627450981" d="M 824.5 186 L 827 186.5 L 824.5 187 L 824.5 186 Z " /><path fill="rgb(58,59,61)" stroke="rgb(58,59,61)" stroke-width="1" opacity="0.9921568627450981" d="M 806.5 192 L 805.5 194 L 804 193.5 L 806.5 192 Z " /><path fill="rgb(58,59,61)" stroke="rgb(58,59,61)" stroke-width="1" opacity="0.9921568627450981" d="M 979.5 192 L 980.5 194 L 979.5 192 Z " /><path fill="rgb(58,59,61)" stroke="rgb(58,59,61)" stroke-width="1" opacity="0.9921568627450981" d="M 798.5 195 L 797.5 197 L 798.5 195 Z " /><path fill="rgb(58,59,61)" stroke="rgb(58,59,61)" stroke-width="1" opacity="0.9921568627450981" d="M 988.5 196 L 992 197.5 L 990.5 198 L 988.5 196 Z " /><path fill="rgb(58,59,61)" stroke="rgb(58,59,61)" stroke-width="1" opacity="0.9921568627450981" d="M 78 197 L 180 197.5 L 79 198 L 79 556.5 L 79.5 557 L 179.5 557 L 179.5 558 L 79.5 558 L 78 556.5 L 78 197 Z " /><path fill="rgb(58,59,61)" stroke="rgb(58,59,61)" stroke-width="1" opacity="0.9921568627450981" d="M 318.5 197 L 788 197.5 L 318.5 198 L 315.5 201 L 318.5 197 Z " /><path fill="rgb(58,59,61)" stroke="rgb(58,59,61)" stroke-width="1" opacity="0.9921568627450981" d="M 993.5 198 L 996 199.5 L 994.5 200 L 993.5 198 Z " /><path fill="rgb(58,59,61)" stroke="rgb(58,59,61)" stroke-width="1" opacity="0.9921568627450981" d="M 312.5 204 L 311.5 206 L 312.5 204 Z " /><path fill="rgb(58,59,61)" stroke="rgb(58,59,61)" stroke-width="1" opacity="0.9921568627450981" d="M 1004.5 204 L 1009 206.5 L 1007.5 206 Q 1003.7 205.8 1004.5 204 Z " /><path fill="rgb(58,59,61)" stroke="rgb(58,59,61)" stroke-width="1" opacity="0.9921568627450981" d="M 1010.5 207 L 1018 211.5 L 1016.5 212 L 1011.5 209 L 1010.5 207 Z " /><path fill="rgb(58,59,61)" stroke="rgb(58,59,61)" stroke-width="1" opacity="0.9921568627450981" d="M 307.5 209 L 304 213.5 Q 304.8 215.8 302.5 215 L 307.5 209 Z " /><path fill="rgb(58,59,61)" stroke="rgb(58,59,61)" stroke-width="1" opacity="0.9921568627450981" d="M 761.5 215 L 759.5 218 L 758 217.5 L 761.5 215 Z " /><path fill="rgb(58,59,61)" stroke="rgb(58,59,61)" stroke-width="1" opacity="0.9921568627450981" d="M 1023.5 215 L 1024 216.5 L 1022 217.5 L 1023.5 215 Z " /><path fill="rgb(58,59,61)" stroke="rgb(58,59,61)" stroke-width="1" opacity="0.9921568627450981" d="M 755.5 218 L 758 219.5 L 752.5 223 L 752.5 222 L 756 219.5 L 755.5 218 Z " /><path fill="rgb(58,59,61)" stroke="rgb(58,59,61)" stroke-width="1" opacity="0.9921568627450981" d="M 748.5 222 L 750 222.5 L 747.5 224 L 748.5 222 Z " /><path fill="rgb(58,59,61)" stroke="rgb(58,59,61)" stroke-width="1" opacity="0.9921568627450981" d="M 1018.5 222 L 1016.5 225 L 1018.5 222 Z " /><path fill="rgb(58,59,61)" stroke="rgb(58,59,61)" stroke-width="1" opacity="0.9921568627450981" d="M 293.5 224 L 289.5 229 L 293.5 224 Z " /><path fill="rgb(58,59,61)" stroke="rgb(58,59,61)" stroke-width="1" opacity="0.9921568627450981" d="M 745.5 224 L 744.5 226 L 743 225.5 L 745.5 224 Z " /><path fill="rgb(58,59,61)" stroke="rgb(58,59,61)" stroke-width="1" opacity="0.9921568627450981" d="M 750.5 224 L 749.5 226 L 750.5 224 Z " /><path fill="rgb(58,59,61)" stroke="rgb(58,59,61)" stroke-width="1" opacity="0.9921568627450981" d="M 746.5 227 L 748 227.5 L 745.5 229 L 746.5 227 Z " /><path fill="rgb(58,59,61)" stroke="rgb(58,59,61)" stroke-width="1" opacity="0.9921568627450981" d="M 1012.5 229 L 1011.5 231 L 1012.5 229 Z " /><path fill="rgb(58,59,61)" stroke="rgb(58,59,61)" stroke-width="1" opacity="0.9921568627450981" d="M 734.5 231 L 732.5 234 L 734.5 231 Z " /><path fill="rgb(58,59,61)" stroke="rgb(58,59,61)" stroke-width="1" opacity="0.9921568627450981" d="M 1008.5 233 L 1007.5 235 L 1008.5 233 Z " /><path fill="rgb(58,59,61)" stroke="rgb(58,59,61)" stroke-width="1" opacity="0.9921568627450981" d="M 738.5 234 L 740 234.5 L 737 236.5 L 735.5 239 L 732.5 241 L 738.5 234 Z " /><path fill="rgb(58,59,61)" stroke="rgb(58,59,61)" stroke-width="1" opacity="0.9921568627450981" d="M 728.5 236 L 727.5 238 L 728.5 236 Z " /><path fill="rgb(58,59,61)" stroke="rgb(58,59,61)" stroke-width="1" opacity="0.9921568627450981" d="M 1006.5 236 L 1001.5 242 L 1006.5 236 Z " /><path fill="rgb(58,59,61)" stroke="rgb(58,59,61)" stroke-width="1" opacity="0.9921568627450981" d="M 278.5 240 L 275.5 244 L 278.5 240 Z " /><path fill="rgb(58,59,61)" stroke="rgb(58,59,61)" stroke-width="1" opacity="0.9921568627450981" d="M 723.5 240 L 722.5 242 L 723.5 240 Z " /><path fill="rgb(58,59,61)" stroke="rgb(58,59,61)" stroke-width="1" opacity="0.9921568627450981" d="M 1000.5 243 L 999.5 245 L 1000.5 243 Z " /><path fill="rgb(58,59,61)" stroke="rgb(58,59,61)" stroke-width="1" opacity="0.9921568627450981" d="M 729.5 244 L 724.5 250 L 729.5 244 Z " /><path fill="rgb(58,59,61)" stroke="rgb(58,59,61)" stroke-width="1" opacity="0.9921568627450981" d="M 271.5 248 L 262 258.5 L 257.5 264 L 261 259.5 L 271.5 248 Z " /><path fill="rgb(58,59,61)" stroke="rgb(58,59,61)" stroke-width="1" opacity="0.9921568627450981" d="M 714.5 248 L 713.5 250 L 714.5 248 Z " /><path fill="rgb(58,59,61)" stroke="rgb(58,59,61)" stroke-width="1" opacity="0.9921568627450981" d="M 993 250 L 995 250.5 L 988 256.5 L 993 250 Z " /><path fill="rgb(58,59,61)" stroke="rgb(58,59,61)" stroke-width="1" opacity="0.9921568627450981" d="M 711.5 251 L 709.5 254 L 711.5 251 Z " /><path fill="rgb(58,59,61)" stroke="rgb(58,59,61)" stroke-width="1" opacity="0.9921568627450981" d="M 719.5 256 L 718 258.5 L 717.5 260 L 717 258.5 L 719.5 256 Z " /><path fill="rgb(58,59,61)" stroke="rgb(58,59,61)" stroke-width="1" opacity="0.9921568627450981" d="M 703.5 260 L 699 265.5 L 698.5 267 L 698 265.5 L 703.5 260 Z " /><path fill="rgb(58,59,61)" stroke="rgb(58,59,61)" stroke-width="1" opacity="0.9921568627450981" d="M 715.5 261 L 714.5 263 L 715.5 261 Z " /><path fill="rgb(58,59,61)" stroke="rgb(58,59,61)" stroke-width="1" opacity="0.9921568627450981" d="M 982.5 263 L 982 264.5 L 979.5 268 L 981 265.5 L 982.5 263 Z " /><path fill="rgb(58,59,61)" stroke="rgb(58,59,61)" stroke-width="1" opacity="0.9921568627450981" d="M 713.5 264 L 712.5 266 L 713.5 264 Z " /><path fill="rgb(58,59,61)" stroke="rgb(58,59,61)" stroke-width="1" opacity="0.9921568627450981" d="M 711.5 267 L 710.5 269 L 711.5 267 Z " /><path fill="rgb(58,59,61)" stroke="rgb(58,59,61)" stroke-width="1" opacity="0.9921568627450981" d="M 883.5 267 L 888 267.5 L 883.5 268 L 883.5 267 Z " /><path fill="rgb(58,59,61)" stroke="rgb(58,59,61)" stroke-width="1" opacity="0.9921568627450981" d="M 906.5 267 L 910 267.5 L 906.5 268 L 906.5 267 Z " /><path fill="rgb(58,59,61)" stroke="rgb(58,59,61)" stroke-width="1" opacity="0.9921568627450981" d="M 252.5 268 L 248 273.5 L 245.5 277 L 247 274.5 L 252.5 268 Z " /><path fill="rgb(58,59,61)" stroke="rgb(58,59,61)" stroke-width="1" opacity="0.9921568627450981" d="M 696.5 268 L 696 269.5 L 695.5 271 L 695 269.5 L 696.5 268 Z " /><path fill="rgb(58,59,61)" stroke="rgb(58,59,61)" stroke-width="1" opacity="0.9921568627450981" d="M 875.5 268 L 878 268.5 L 875.5 269 L 875.5 268 Z " /><path fill="rgb(58,59,61)" stroke="rgb(58,59,61)" stroke-width="1" opacity="0.9921568627450981" d="M 916.5 268 L 919 268.5 L 916.5 269 L 916.5 268 Z " /><path fill="rgb(58,59,61)" stroke="rgb(58,59,61)" stroke-width="1" opacity="0.9921568627450981" d="M 921.5 269 L 925 269.5 L 921.5 270 L 921.5 269 Z " /><path fill="rgb(58,59,61)" stroke="rgb(58,59,61)" stroke-width="1" opacity="0.9921568627450981" d="M 977.5 269 L 976 271.5 L 972.5 276 L 975 272.5 L 977.5 269 Z " /><path fill="rgb(58,59,61)" stroke="rgb(58,59,61)" stroke-width="1" opacity="0.9921568627450981" d="M 926.5 270 L 929 270.5 L 926.5 271 L 926.5 270 Z " /><path fill="rgb(58,59,61)" stroke="rgb(58,59,61)" stroke-width="1" opacity="0.9921568627450981" d="M 932.5 271 L 933.5 273 L 932.5 271 Z " /><path fill="rgb(58,59,61)" stroke="rgb(58,59,61)" stroke-width="1" opacity="0.9921568627450981" d="M 937.5 273 L 940 274.5 L 938.5 274 L 937.5 273 Z " /><path fill="rgb(58,59,61)" stroke="rgb(58,59,61)" stroke-width="1" opacity="0.9921568627450981" d="M 942.5 275 L 945 276.5 L 943.5 276 L 942.5 275 Z " /><path fill="rgb(58,59,61)" stroke="rgb(58,59,61)" stroke-width="1" opacity="0.9921568627450981" d="M 948.5 277 L 949.5 279 L 948.5 277 Z " /><path fill="rgb(58,59,61)" stroke="rgb(58,59,61)" stroke-width="1" opacity="0.9921568627450981" d="M 970.5 277 L 969.5 279 L 970.5 277 Z " /><path fill="rgb(58,59,61)" stroke="rgb(58,59,61)" stroke-width="1" opacity="0.9921568627450981" d="M 241.5 280 L 240.5 282 L 241.5 280 Z " /><path fill="rgb(58,59,61)" stroke="rgb(58,59,61)" stroke-width="1" opacity="0.9921568627450981" d="M 688.5 280 L 687.5 282 L 688.5 280 Z " /><path fill="rgb(58,59,61)" stroke="rgb(58,59,61)" stroke-width="1" opacity="0.9921568627450981" d="M 839.5 280 L 841 280.5 L 836.5 283 L 837.5 281 L 839.5 280 Z " /><path fill="rgb(58,59,61)" stroke="rgb(58,59,61)" stroke-width="1" opacity="0.9921568627450981" d="M 968.5 280 L 967.5 282 L 968.5 280 Z " /><path fill="rgb(58,59,61)" stroke="rgb(58,59,61)" stroke-width="1" opacity="0.9921568627450981" d="M 703.5 281 L 703 282.5 L 702.5 284 L 702 282.5 L 703.5 281 Z " /><path fill="rgb(58,59,61)" stroke="rgb(58,59,61)" stroke-width="1" opacity="0.9921568627450981" d="M 955.5 281 L 959 283.5 L 957.5 283 L 955.5 281 Z " /><path fill="rgb(58,59,61)" stroke="rgb(58,59,61)" stroke-width="1" opacity="0.9921568627450981" d="M 238.5 283 L 236 286.5 Q 236.8 288.8 234.5 288 L 238.5 283 Z " /><path fill="rgb(58,59,61)" stroke="rgb(58,59,61)" stroke-width="1" opacity="0.9921568627450981" d="M 686.5 283 L 686 284.5 L 684.5 287 L 685 285.5 L 686.5 283 Z " /><path fill="rgb(58,59,61)" stroke="rgb(58,59,61)" stroke-width="1" opacity="0.9921568627450981" d="M 834.5 283 L 833.5 285 L 834.5 283 Z " /><path fill="rgb(58,59,61)" stroke="rgb(58,59,61)" stroke-width="1" opacity="0.9921568627450981" d="M 960.5 284 L 961.5 286 L 960.5 284 Z " /><path fill="rgb(58,59,61)" stroke="rgb(58,59,61)" stroke-width="1" opacity="0.9921568627450981" d="M 964.5 284 L 963.5 286 L 964.5 284 Z " /><path fill="rgb(58,59,61)" stroke="rgb(58,59,61)" stroke-width="1" opacity="0.9921568627450981" d="M 831.5 285 L 829.5 288 L 827.5 289 L 828.5 287 L 831.5 285 Z " /><path fill="rgb(58,59,61)" stroke="rgb(58,59,61)" stroke-width="1" opacity="0.9921568627450981" d="M 699.5 288 L 700 289.5 L 697.5 293 L 698 291.5 L 699.5 288 Z " /><path fill="rgb(58,59,61)" stroke="rgb(58,59,61)" stroke-width="1" opacity="0.9921568627450981" d="M 232.5 290 L 230.5 293 L 232.5 290 Z " /><path fill="rgb(58,59,61)" stroke="rgb(58,59,61)" stroke-width="1" opacity="0.9921568627450981" d="M 825.5 290 L 823.5 293 L 825.5 290 Z " /><path fill="rgb(58,59,61)" stroke="rgb(58,59,61)" stroke-width="1" opacity="0.9921568627450981" d="M 365.5 291 L 488 291.5 L 365.5 292 L 365.5 291 Z " /><path fill="rgb(58,59,61)" stroke="rgb(58,59,61)" stroke-width="1" opacity="0.9921568627450981" d="M 603 291 L 681 291.5 L 604 292 L 604 558 L 488.5 558 L 488.5 557 L 603 557 L 603 291 Z " /><path fill="rgb(58,59,61)" stroke="rgb(58,59,61)" stroke-width="1" opacity="0.9921568627450981" d="M 363.5 292 L 361.5 295 L 363.5 292 Z " /><path fill="rgb(58,59,61)" stroke="rgb(58,59,61)" stroke-width="1" opacity="0.9921568627450981" d="M 819.5 295 L 816.5 299 L 819.5 295 Z " /><path fill="rgb(58,59,61)" stroke="rgb(58,59,61)" stroke-width="1" opacity="0.9921568627450981" d="M 695.5 297 L 696 298.5 L 694.5 301 L 694 299.5 L 695.5 297 Z " /><path fill="rgb(58,59,61)" stroke="rgb(58,59,61)" stroke-width="1" opacity="0.9921568627450981" d="M 224.5 298 L 220.5 303 L 224.5 298 Z " /><path fill="rgb(58,59,61)" stroke="rgb(58,59,61)" stroke-width="1" opacity="0.9921568627450981" d="M 813.5 302 L 810 306.5 L 807.5 310 L 809 307.5 L 813.5 302 Z " /><path fill="rgb(58,59,61)" stroke="rgb(58,59,61)" stroke-width="1" opacity="0.9921568627450981" d="M 353.5 303 L 344.5 313 L 353.5 303 Z " /><path fill="rgb(58,59,61)" stroke="rgb(58,59,61)" stroke-width="1" opacity="0.9921568627450981" d="M 212.5 311 L 209 315.5 Q 209.8 317.8 207.5 317 L 212.5 311 Z " /><path fill="rgb(58,59,61)" stroke="rgb(58,59,61)" stroke-width="1" opacity="0.9921568627450981" d="M 806.5 311 L 805.5 313 L 806.5 311 Z " /><path fill="rgb(58,59,61)" stroke="rgb(58,59,61)" stroke-width="1" opacity="0.9921568627450981" d="M 342.5 314 L 338.5 319 L 342.5 314 Z " /><path fill="rgb(58,59,61)" stroke="rgb(58,59,61)" stroke-width="1" opacity="0.9921568627450981" d="M 688.5 316 L 689 318.5 L 688 318.5 L 688.5 316 Z " /><path fill="rgb(58,59,61)" stroke="rgb(58,59,61)" stroke-width="1" opacity="0.9921568627450981" d="M 803.5 316 L 803 317.5 L 802.5 319 L 802 317.5 L 803.5 316 Z " /><path fill="rgb(58,59,61)" stroke="rgb(58,59,61)" stroke-width="1" opacity="0.9921568627450981" d="M 335 321 L 337 321.5 L 330 327.5 L 335 321 Z " /><path fill="rgb(58,59,61)" stroke="rgb(58,59,61)" stroke-width="1" opacity="0.9921568627450981" d="M 686.5 323 L 687 325.5 L 686 325.5 L 686.5 323 Z " /><path fill="rgb(58,59,61)" stroke="rgb(58,59,61)" stroke-width="1" opacity="0.9921568627450981" d="M 198.5 326 L 193.5 332 L 198.5 326 Z " /><path fill="rgb(58,59,61)" stroke="rgb(58,59,61)" stroke-width="1" opacity="0.9921568627450981" d="M 798.5 326 L 798 327.5 L 797.5 329 L 797 327.5 L 798.5 326 Z " /><path fill="rgb(58,59,61)" stroke="rgb(58,59,61)" stroke-width="1" opacity="0.9921568627450981" d="M 796.5 331 L 795.5 333 L 796.5 331 Z " /><path fill="rgb(58,59,61)" stroke="rgb(58,59,61)" stroke-width="1" opacity="0.9921568627450981" d="M 684.5 332 L 685 334.5 L 684 334.5 L 684.5 332 Z " /><path fill="rgb(58,59,61)" stroke="rgb(58,59,61)" stroke-width="1" opacity="0.9921568627450981" d="M 190.5 335 L 188.5 338 L 190.5 335 Z " /><path fill="rgb(58,59,61)" stroke="rgb(58,59,61)" stroke-width="1" opacity="0.9921568627450981" d="M 322.5 335 L 321.5 337 L 322.5 335 Z " /><path fill="rgb(58,59,61)" stroke="rgb(58,59,61)" stroke-width="1" opacity="0.9921568627450981" d="M 683.5 337 L 684 339.5 L 683 339.5 L 683.5 337 Z " /><path fill="rgb(58,59,61)" stroke="rgb(58,59,61)" stroke-width="1" opacity="0.9921568627450981" d="M 319.5 338 L 320 339.5 L 310 348.5 L 319.5 338 Z " /><path fill="rgb(58,59,61)" stroke="rgb(58,59,61)" stroke-width="1" opacity="0.9921568627450981" d="M 186.5 339 L 185.5 341 L 186.5 339 Z " /><path fill="rgb(58,59,61)" stroke="rgb(58,59,61)" stroke-width="1" opacity="0.9921568627450981" d="M 183.5 342 L 179.5 347 L 183.5 342 Z " /><path fill="rgb(58,59,61)" stroke="rgb(58,59,61)" stroke-width="1" opacity="0.9921568627450981" d="M 792.5 342 L 793 344.5 L 792 344.5 L 792.5 342 Z " /><path fill="rgb(58,59,61)" stroke="rgb(58,59,61)" stroke-width="1" opacity="0.9921568627450981" d="M 907.5 345 L 908 419 L 955 419 L 955 470.5 L 951.5 473 L 951.5 472 L 954 470.5 L 954 420 L 907 420 L 907.5 345 Z " /><path fill="rgb(58,59,61)" stroke="rgb(58,59,61)" stroke-width="1" opacity="0.9921568627450981" d="M 1049.5 345 L 1050 523.5 L 1045.5 527 L 1045.5 526 L 1049 523.5 L 1049.5 345 Z " /><path fill="rgb(58,59,61)" stroke="rgb(58,59,61)" stroke-width="1" opacity="0.9921568627450981" d="M 682.5 347 L 683 349.5 L 682 349.5 L 682.5 347 Z " /><path fill="rgb(58,59,61)" stroke="rgb(58,59,61)" stroke-width="1" opacity="0.9921568627450981" d="M 790.5 354 L 791 356.5 L 790 356.5 L 790.5 354 Z " /><path fill="rgb(58,59,61)" stroke="rgb(58,59,61)" stroke-width="1" opacity="0.9921568627450981" d="M 302.5 357 L 299 361.5 L 300 364.5 L 299 364.5 L 298 361.5 L 302.5 357 Z " /><path fill="rgb(58,59,61)" stroke="rgb(58,59,61)" stroke-width="1" opacity="0.9921568627450981" d="M 789.5 362 L 790 368.5 L 789 368.5 L 789.5 362 Z " /><path fill="rgb(58,59,61)" stroke="rgb(58,59,61)" stroke-width="1" opacity="0.9921568627450981" d="M 680.5 365 L 681 378.5 L 680 378.5 L 680.5 365 Z " /><path fill="rgb(58,59,61)" stroke="rgb(58,59,61)" stroke-width="1" opacity="0.9921568627450981" d="M 301.5 366 L 302.5 368 L 301.5 366 Z " /><path fill="rgb(58,59,61)" stroke="rgb(58,59,61)" stroke-width="1" opacity="0.9921568627450981" d="M 303.5 369 L 306.5 373 L 303.5 369 Z " /><path fill="rgb(58,59,61)" stroke="rgb(58,59,61)" stroke-width="1" opacity="0.9921568627450981" d="M 309.5 376 L 311 378.5 L 309 377.5 L 309.5 376 Z " /><path fill="rgb(58,59,61)" stroke="rgb(58,59,61)" stroke-width="1" opacity="0.9921568627450981" d="M 680.5 380 L 681 385.5 L 680 385.5 L 680.5 380 Z " /><path fill="rgb(58,59,61)" stroke="rgb(58,59,61)" stroke-width="1" opacity="0.9921568627450981" d="M 789.5 382 L 790 387.5 L 789 387.5 L 789.5 382 Z " /><path fill="rgb(58,59,61)" stroke="rgb(58,59,61)" stroke-width="1" opacity="0.9921568627450981" d="M 314.5 383 L 316.5 386 L 314.5 383 Z " /><path fill="rgb(58,59,61)" stroke="rgb(58,59,61)" stroke-width="1" opacity="0.9921568627450981" d="M 317.5 387 L 319.5 390 L 317.5 387 Z " /><path fill="rgb(58,59,61)" stroke="rgb(58,59,61)" stroke-width="1" opacity="0.9921568627450981" d="M 320.5 391 L 322.5 394 L 320.5 391 Z " /><path fill="rgb(58,59,61)" stroke="rgb(58,59,61)" stroke-width="1" opacity="0.9921568627450981" d="M 681.5 396 L 682 398.5 L 681 398.5 L 681.5 396 Z " /><path fill="rgb(58,59,61)" stroke="rgb(58,59,61)" stroke-width="1" opacity="0.9921568627450981" d="M 325.5 397 L 326.5 399 L 325.5 397 Z " /><path fill="rgb(58,59,61)" stroke="rgb(58,59,61)" stroke-width="1" opacity="0.9921568627450981" d="M 791.5 399 L 792 401.5 L 791 401.5 L 791.5 399 Z " /><path fill="rgb(58,59,61)" stroke="rgb(58,59,61)" stroke-width="1" opacity="0.9921568627450981" d="M 327.5 400 L 334 408.5 L 333 408.5 L 327.5 400 Z " /><path fill="rgb(58,59,61)" stroke="rgb(58,59,61)" stroke-width="1" opacity="0.9921568627450981" d="M 682.5 402 L 683 406.5 L 682 406.5 L 682.5 402 Z " /><path fill="rgb(58,59,61)" stroke="rgb(58,59,61)" stroke-width="1" opacity="0.9921568627450981" d="M 792.5 404 L 793 406.5 L 792 406.5 L 792.5 404 Z " /><path fill="rgb(58,59,61)" stroke="rgb(58,59,61)" stroke-width="1" opacity="0.9921568627450981" d="M 795.5 416 L 796.5 418 L 795.5 416 Z " /><path fill="rgb(58,59,61)" stroke="rgb(58,59,61)" stroke-width="1" opacity="0.9921568627450981" d="M 342.5 419 L 344 421.5 L 343 421.5 L 342.5 419 Z " /><path fill="rgb(58,59,61)" stroke="rgb(58,59,61)" stroke-width="1" opacity="0.9921568627450981" d="M 685.5 419 L 686 422.5 L 685 422.5 L 685.5 419 Z " /><path fill="rgb(58,59,61)" stroke="rgb(58,59,61)" stroke-width="1" opacity="0.9921568627450981" d="M 686.5 424 L 687 426.5 L 686 426.5 L 686.5 424 Z " /><path fill="rgb(58,59,61)" stroke="rgb(58,59,61)" stroke-width="1" opacity="0.9921568627450981" d="M 347.5 426 L 350.5 430 L 347.5 426 Z " /><path fill="rgb(58,59,61)" stroke="rgb(58,59,61)" stroke-width="1" opacity="0.9921568627450981" d="M 687.5 428 L 688 430.5 L 687 430.5 L 687.5 428 Z " /><path fill="rgb(58,59,61)" stroke="rgb(58,59,61)" stroke-width="1" opacity="0.9921568627450981" d="M 802.5 431 L 805 434.5 L 803 433.5 L 802.5 431 Z " /><path fill="rgb(58,59,61)" stroke="rgb(58,59,61)" stroke-width="1" opacity="0.9921568627450981" d="M 352.5 432 L 355 435.5 L 353 434.5 L 352.5 432 Z " /><path fill="rgb(58,59,61)" stroke="rgb(58,59,61)" stroke-width="1" opacity="0.9921568627450981" d="M 689.5 435 L 690 437.5 L 689 437.5 L 689.5 435 Z " /><path fill="rgb(58,59,61)" stroke="rgb(58,59,61)" stroke-width="1" opacity="0.9921568627450981" d="M 805.5 436 L 811 443.5 L 808 441.5 L 805.5 436 Z " /><path fill="rgb(58,59,61)" stroke="rgb(58,59,61)" stroke-width="1" opacity="0.9921568627450981" d="M 226.5 438 L 227.5 440 L 226.5 438 Z " /><path fill="rgb(58,59,61)" stroke="rgb(58,59,61)" stroke-width="1" opacity="0.9921568627450981" d="M 223.5 440 L 222.5 442 L 223.5 440 Z " /><path fill="rgb(58,59,61)" stroke="rgb(58,59,61)" stroke-width="1" opacity="0.9921568627450981" d="M 359.5 441 L 360.5 443 L 359.5 441 Z " /><path fill="rgb(58,59,61)" stroke="rgb(58,59,61)" stroke-width="1" opacity="0.9921568627450981" d="M 230.5 442 L 232 444.5 L 230 443.5 L 230.5 442 Z " /><path fill="rgb(58,59,61)" stroke="rgb(58,59,61)" stroke-width="1" opacity="0.9921568627450981" d="M 811.5 445 L 812.5 447 L 811.5 445 Z " /><path fill="rgb(58,59,61)" stroke="rgb(58,59,61)" stroke-width="1" opacity="0.9921568627450981" d="M 217.5 446 L 216.5 448 L 217.5 446 Z " /><path fill="rgb(58,59,61)" stroke="rgb(58,59,61)" stroke-width="1" opacity="0.9921568627450981" d="M 234.5 448 L 235.5 450 L 234.5 448 Z " /><path fill="rgb(58,59,61)" stroke="rgb(58,59,61)" stroke-width="1" opacity="0.9921568627450981" d="M 814.5 448 L 817 451.5 L 816 451.5 L 814.5 448 Z " /><path fill="rgb(58,59,61)" stroke="rgb(58,59,61)" stroke-width="1" opacity="0.9921568627450981" d="M 214.5 449 L 215 450.5 L 208 456.5 L 214.5 449 Z " /><path fill="rgb(58,59,61)" stroke="rgb(58,59,61)" stroke-width="1" opacity="0.9921568627450981" d="M 694.5 451 L 696 453.5 L 695 453.5 L 694.5 451 Z " /><path fill="rgb(58,59,61)" stroke="rgb(58,59,61)" stroke-width="1" opacity="0.9921568627450981" d="M 818.5 453 L 820.5 456 L 818.5 453 Z " /><path fill="rgb(58,59,61)" stroke="rgb(58,59,61)" stroke-width="1" opacity="0.9921568627450981" d="M 369.5 454 L 370.5 456 L 369.5 454 Z " /><path fill="rgb(58,59,61)" stroke="rgb(58,59,61)" stroke-width="1" opacity="0.9921568627450981" d="M 241.5 457 L 242.5 459 L 241.5 457 Z " /><path fill="rgb(58,59,61)" stroke="rgb(58,59,61)" stroke-width="1" opacity="0.9921568627450981" d="M 371.5 457 L 374 460.5 L 373 460.5 L 371.5 457 Z " /><path fill="rgb(58,59,61)" stroke="rgb(58,59,61)" stroke-width="1" opacity="0.9921568627450981" d="M 823.5 457 L 826.5 461 L 823.5 457 Z " /><path fill="rgb(58,59,61)" stroke="rgb(58,59,61)" stroke-width="1" opacity="0.9921568627450981" d="M 206.5 458 L 204.5 461 L 206.5 458 Z " /><path fill="rgb(58,59,61)" stroke="rgb(58,59,61)" stroke-width="1" opacity="0.9921568627450981" d="M 697.5 458 L 699 460.5 L 698 460.5 L 697.5 458 Z " /><path fill="rgb(58,59,61)" stroke="rgb(58,59,61)" stroke-width="1" opacity="0.9921568627450981" d="M 202.5 462 L 198.5 467 L 202.5 462 Z " /><path fill="rgb(58,59,61)" stroke="rgb(58,59,61)" stroke-width="1" opacity="0.9921568627450981" d="M 245.5 462 L 247.5 465 L 245.5 462 Z " /><path fill="rgb(58,59,61)" stroke="rgb(58,59,61)" stroke-width="1" opacity="0.9921568627450981" d="M 699.5 462 L 703 468.5 L 702 468.5 L 699.5 462 Z " /><path fill="rgb(58,59,61)" stroke="rgb(58,59,61)" stroke-width="1" opacity="0.9921568627450981" d="M 829.5 462 L 831.5 465 L 829.5 462 Z " /><path fill="rgb(58,59,61)" stroke="rgb(58,59,61)" stroke-width="1" opacity="0.9921568627450981" d="M 376.5 463 L 377.5 465 L 376.5 463 Z " /><path fill="rgb(58,59,61)" stroke="rgb(58,59,61)" stroke-width="1" opacity="0.9921568627450981" d="M 833.5 465 L 834.5 467 L 833.5 465 Z " /><path fill="rgb(58,59,61)" stroke="rgb(58,59,61)" stroke-width="1" opacity="0.9921568627450981" d="M 379.5 467 L 380.5 469 L 379.5 467 Z " /><path fill="rgb(58,59,61)" stroke="rgb(58,59,61)" stroke-width="1" opacity="0.9921568627450981" d="M 197.5 468 L 190.5 476 L 195 470.5 Q 194.3 468.3 196.5 469 L 197.5 468 Z " /><path fill="rgb(58,59,61)" stroke="rgb(58,59,61)" stroke-width="1" opacity="0.9921568627450981" d="M 252.5 471 L 254.5 474 L 252.5 471 Z " /><path fill="rgb(58,59,61)" stroke="rgb(58,59,61)" stroke-width="1" opacity="0.9921568627450981" d="M 845.5 472 L 846.5 474 L 845.5 472 Z " /><path fill="rgb(58,59,61)" stroke="rgb(58,59,61)" stroke-width="1" opacity="0.9921568627450981" d="M 948.5 473 L 950 473.5 L 946.5 475 L 946.5 474 L 948.5 473 Z " /><path fill="rgb(58,59,61)" stroke="rgb(58,59,61)" stroke-width="1" opacity="0.9921568627450981" d="M 706.5 474 L 709 478.5 L 707 477.5 L 706.5 474 Z " /><path fill="rgb(58,59,61)" stroke="rgb(58,59,61)" stroke-width="1" opacity="0.9921568627450981" d="M 256.5 476 L 258.5 479 L 256.5 476 Z " /><path fill="rgb(58,59,61)" stroke="rgb(58,59,61)" stroke-width="1" opacity="0.9921568627450981" d="M 937.5 477 L 936.5 479 L 937.5 477 Z " /><path fill="rgb(58,59,61)" stroke="rgb(58,59,61)" stroke-width="1" opacity="0.9921568627450981" d="M 388.5 479 L 390.5 482 L 388.5 479 Z " /><path fill="rgb(58,59,61)" stroke="rgb(58,59,61)" stroke-width="1" opacity="0.9921568627450981" d="M 930.5 479 L 933 479.5 L 930.5 480 L 930.5 479 Z " /><path fill="rgb(58,59,61)" stroke="rgb(58,59,61)" stroke-width="1" opacity="0.9921568627450981" d="M 260.5 480 L 262 482.5 L 260 481.5 L 260.5 480 Z " /><path fill="rgb(58,59,61)" stroke="rgb(58,59,61)" stroke-width="1" opacity="0.9921568627450981" d="M 709.5 480 L 712 483.5 L 711 483.5 L 709.5 480 Z " /><path fill="rgb(58,59,61)" stroke="rgb(58,59,61)" stroke-width="1" opacity="0.9921568627450981" d="M 925.5 480 L 928 480.5 L 925.5 481 L 925.5 480 Z " /><path fill="rgb(58,59,61)" stroke="rgb(58,59,61)" stroke-width="1" opacity="0.9921568627450981" d="M 871.5 481 L 874 481.5 L 871.5 482 L 871.5 481 Z " /><path fill="rgb(58,59,61)" stroke="rgb(58,59,61)" stroke-width="1" opacity="0.9921568627450981" d="M 876.5 482 L 881 482.5 L 876.5 483 L 876.5 482 Z " /><path fill="rgb(58,59,61)" stroke="rgb(58,59,61)" stroke-width="1" opacity="0.9921568627450981" d="M 916.5 482 L 919 482.5 L 916.5 483 L 916.5 482 Z " /><path fill="rgb(58,59,61)" stroke="rgb(58,59,61)" stroke-width="1" opacity="0.9921568627450981" d="M 182.5 483 L 181.5 485 L 182.5 483 Z " /><path fill="rgb(58,59,61)" stroke="rgb(58,59,61)" stroke-width="1" opacity="0.9921568627450981" d="M 391.5 483 L 395 487.5 L 394 487.5 L 391.5 483 Z " /><path fill="rgb(58,59,61)" stroke="rgb(58,59,61)" stroke-width="1" opacity="0.9921568627450981" d="M 888.5 483 L 905 483.5 L 888.5 484 L 888.5 483 Z " /><path fill="rgb(58,59,61)" stroke="rgb(58,59,61)" stroke-width="1" opacity="0.9921568627450981" d="M 263.5 484 L 267 488.5 L 263 485.5 L 263.5 484 Z " /><path fill="rgb(58,59,61)" stroke="rgb(58,59,61)" stroke-width="1" opacity="0.9921568627450981" d="M 714.5 487 L 718 491.5 L 715 489.5 L 714.5 487 Z " /><path fill="rgb(58,59,61)" stroke="rgb(58,59,61)" stroke-width="1" opacity="0.9921568627450981" d="M 396.5 489 L 401 495.5 L 400 495.5 L 396.5 489 Z " /><path fill="rgb(58,59,61)" stroke="rgb(58,59,61)" stroke-width="1" opacity="0.9921568627450981" d="M 718.5 493 L 720.5 496 L 718.5 493 Z " /><path fill="rgb(58,59,61)" stroke="rgb(58,59,61)" stroke-width="1" opacity="0.9921568627450981" d="M 271.5 495 L 272.5 497 L 271.5 495 Z " /><path fill="rgb(58,59,61)" stroke="rgb(58,59,61)" stroke-width="1" opacity="0.9921568627450981" d="M 402.5 497 L 404.5 500 L 402.5 497 Z " /><path fill="rgb(58,59,61)" stroke="rgb(58,59,61)" stroke-width="1" opacity="0.9921568627450981" d="M 274.5 498 L 280 505.5 L 278 504.5 L 274 499.5 L 274.5 498 Z " /><path fill="rgb(58,59,61)" stroke="rgb(58,59,61)" stroke-width="1" opacity="0.9921568627450981" d="M 725.5 502 L 727.5 505 L 725.5 502 Z " /><path fill="rgb(58,59,61)" stroke="rgb(58,59,61)" stroke-width="1" opacity="0.9921568627450981" d="M 408.5 505 L 411.5 509 L 408.5 505 Z " /><path fill="rgb(58,59,61)" stroke="rgb(58,59,61)" stroke-width="1" opacity="0.9921568627450981" d="M 412.5 510 L 422 521.5 L 417 517.5 L 412.5 510 Z " /><path fill="rgb(58,59,61)" stroke="rgb(58,59,61)" stroke-width="1" opacity="0.9921568627450981" d="M 284.5 511 L 285.5 513 L 284.5 511 Z " /><path fill="rgb(58,59,61)" stroke="rgb(58,59,61)" stroke-width="1" opacity="0.9921568627450981" d="M 736.5 513 L 737.5 515 L 736.5 513 Z " /><path fill="rgb(58,59,61)" stroke="rgb(58,59,61)" stroke-width="1" opacity="0.9921568627450981" d="M 286.5 514 L 288.5 517 L 286.5 514 Z " /><path fill="rgb(58,59,61)" stroke="rgb(58,59,61)" stroke-width="1" opacity="0.9921568627450981" d="M 739.5 516 L 742.5 520 L 739.5 516 Z " /><path fill="rgb(58,59,61)" stroke="rgb(58,59,61)" stroke-width="1" opacity="0.9921568627450981" d="M 289.5 518 L 295 524.5 L 293 523.5 L 289.5 518 Z " /><path fill="rgb(58,59,61)" stroke="rgb(58,59,61)" stroke-width="1" opacity="0.9921568627450981" d="M 744.5 521 L 746.5 524 L 744.5 521 Z " /><path fill="rgb(58,59,61)" stroke="rgb(58,59,61)" stroke-width="1" opacity="0.9921568627450981" d="M 423.5 524 L 426 527.5 L 424 526.5 L 423.5 524 Z " /><path fill="rgb(58,59,61)" stroke="rgb(58,59,61)" stroke-width="1" opacity="0.9921568627450981" d="M 748.5 524 L 751.5 528 L 748.5 524 Z " /><path fill="rgb(58,59,61)" stroke="rgb(58,59,61)" stroke-width="1" opacity="0.9921568627450981" d="M 296.5 526 L 298 528.5 L 297 528.5 L 296.5 526 Z " /><path fill="rgb(58,59,61)" stroke="rgb(58,59,61)" stroke-width="1" opacity="0.9921568627450981" d="M 753.5 528 L 755.5 531 L 753.5 528 Z " /><path fill="rgb(58,59,61)" stroke="rgb(58,59,61)" stroke-width="1" opacity="0.9921568627450981" d="M 1041.5 529 L 1040.5 531 L 1041.5 529 Z " /><path fill="rgb(58,59,61)" stroke="rgb(58,59,61)" stroke-width="1" opacity="0.9921568627450981" d="M 300.5 532 L 301.5 534 L 300.5 532 Z " /><path fill="rgb(58,59,61)" stroke="rgb(58,59,61)" stroke-width="1" opacity="0.9921568627450981" d="M 430.5 533 L 431.5 535 L 430.5 533 Z " /><path fill="rgb(58,59,61)" stroke="rgb(58,59,61)" stroke-width="1" opacity="0.9921568627450981" d="M 761.5 534 L 764 535.5 L 762.5 536 L 761.5 534 Z " /><path fill="rgb(58,59,61)" stroke="rgb(58,59,61)" stroke-width="1" opacity="0.9921568627450981" d="M 1033.5 534 L 1032.5 536 L 1033.5 534 Z " /><path fill="rgb(58,59,61)" stroke="rgb(58,59,61)" stroke-width="1" opacity="0.9921568627450981" d="M 304.5 537 L 305.5 539 L 304.5 537 Z " /><path fill="rgb(58,59,61)" stroke="rgb(58,59,61)" stroke-width="1" opacity="0.9921568627450981" d="M 1026.5 538 L 1028 538.5 L 1025.5 540 L 1026.5 538 Z " /><path fill="rgb(58,59,61)" stroke="rgb(58,59,61)" stroke-width="1" opacity="0.9921568627450981" d="M 435.5 540 L 437.5 543 L 435.5 540 Z " /><path fill="rgb(58,59,61)" stroke="rgb(58,59,61)" stroke-width="1" opacity="0.9921568627450981" d="M 770.5 540 L 774 542.5 L 772.5 542 L 770.5 540 Z " /><path fill="rgb(58,59,61)" stroke="rgb(58,59,61)" stroke-width="1" opacity="0.9921568627450981" d="M 1016.5 543 L 1018 543.5 L 1015.5 545 L 1016.5 543 Z " /><path fill="rgb(58,59,61)" stroke="rgb(58,59,61)" stroke-width="1" opacity="0.9921568627450981" d="M 438.5 544 L 442 548.5 L 441 548.5 L 438.5 544 Z " /><path fill="rgb(58,59,61)" stroke="rgb(58,59,61)" stroke-width="1" opacity="0.9921568627450981" d="M 777.5 544 L 778.5 546 L 777.5 544 Z " /><path fill="rgb(58,59,61)" stroke="rgb(58,59,61)" stroke-width="1" opacity="0.9921568627450981" d="M 311.5 545 L 319 554.5 L 315 551.5 L 311 546.5 L 311.5 545 Z " /><path fill="rgb(58,59,61)" stroke="rgb(58,59,61)" stroke-width="1" opacity="0.9921568627450981" d="M 1012.5 545 L 1014 545.5 L 1008.5 548 L 1008.5 547 L 1012.5 545 Z " /><path fill="rgb(58,59,61)" stroke="rgb(58,59,61)" stroke-width="1" opacity="0.9921568627450981" d="M 787.5 549 L 788.5 551 L 787.5 549 Z " /><path fill="rgb(58,59,61)" stroke="rgb(58,59,61)" stroke-width="1" opacity="0.9921568627450981" d="M 443.5 550 L 449 558 L 320.5 558 L 319 556.5 L 320.5 557 L 448 556.5 Q 443.5 554 443.5 550 Z " /><path fill="rgb(58,59,61)" stroke="rgb(58,59,61)" stroke-width="1" opacity="0.9921568627450981" d="M 790.5 551 L 798 554.5 L 796.5 555 L 790.5 552 L 790.5 551 Z " /><path fill="rgb(58,59,61)" stroke="rgb(58,59,61)" stroke-width="1" opacity="0.9921568627450981" d="M 805.5 557 L 808 558.5 L 806.5 559 L 805.5 557 Z " /><path fill="rgb(58,59,61)" stroke="rgb(58,59,61)" stroke-width="1" opacity="0.9921568627450981" d="M 975.5 559 L 974.5 561 L 975.5 559 Z " /><path fill="rgb(58,59,61)" stroke="rgb(58,59,61)" stroke-width="1" opacity="0.9921568627450981" d="M 968.5 561 L 971 561.5 L 968.5 562 L 968.5 561 Z " /><path fill="rgb(58,59,61)" stroke="rgb(58,59,61)" stroke-width="1" opacity="0.9921568627450981" d="M 828.5 565 L 831 565.5 L 828.5 566 L 828.5 565 Z " /><path fill="rgb(58,59,61)" stroke="rgb(58,59,61)" stroke-width="1" opacity="0.9921568627450981" d="M 842.5 568 L 845 568.5 L 842.5 569 L 842.5 568 Z " /><path fill="rgb(58,59,61)" stroke="rgb(58,59,61)" stroke-width="1" opacity="0.9921568627450981" d="M 937.5 568 L 941 568.5 L 937.5 569 L 937.5 568 Z " /><path fill="rgb(58,59,61)" stroke="rgb(58,59,61)" stroke-width="1" opacity="0.9921568627450981" d="M 853.5 570 L 856 570.5 L 853.5 571 L 853.5 570 Z " /><path fill="rgb(58,59,61)" stroke="rgb(58,59,61)" stroke-width="1" opacity="0.9921568627450981" d="M 923.5 570 L 928 570.5 L 923.5 571 L 923.5 570 Z " /><path fill="rgb(58,59,61)" stroke="rgb(58,59,61)" stroke-width="1" opacity="0.9921568627450981" d="M 861.5 571 L 865 571.5 L 861.5 572 L 861.5 571 Z " /><path fill="rgb(58,59,61)" stroke="rgb(58,59,61)" stroke-width="1" opacity="0.9921568627450981" d="M 873.5 572 L 879 572.5 L 873.5 573 L 873.5 572 Z " /><path fill="rgb(58,59,61)" stroke="rgb(58,59,61)" stroke-width="1" opacity="0.9921568627450981" d="M 880.5 572 L 885 572.5 L 880.5 573 L 880.5 572 Z " /><path fill="rgb(58,59,61)" stroke="rgb(58,59,61)" stroke-width="1" opacity="0.9921568627450981" d="M 901.5 572 L 907 572.5 L 901.5 573 L 901.5 572 Z " /><path fill="rgb(234,71,54)" stroke="rgb(234,71,54)" stroke-width="1" opacity="0.9882352941176471" d="M 1304.5 149 L 1307 149.5 Q 1273.6 188.1 1251 237.5 Q 1242.9 255.4 1238 276.5 L 1236 287.5 L 1236 295.5 L 1235 296.5 L 1235 312.5 L 1236 313.5 L 1237 324.5 L 1241 337.5 L 1248 350.5 L 1256 361 L 1259 362.5 Q 1258.3 364.8 1260.5 364 L 1343.5 438 L 1391 485.5 Q 1418.8 514.7 1440 550.5 Q 1448.7 565.3 1454 583.5 L 1457 599.5 L 1457 608.5 L 1456 608.5 Q 1436.9 574.1 1408.5 549 Q 1374.1 517.9 1331.5 495 L 1284.5 471 L 1216.5 440 L 1162.5 411 Q 1129.4 391.6 1104 364.5 L 1103 360.5 L 1120 312.5 L 1142 268.5 Q 1165.2 228.7 1198.5 199 Q 1222.8 177.3 1254.5 163 L 1279.5 154 L 1304.5 149 Z " /><path fill="rgb(59,60,62)" stroke="rgb(59,60,62)" stroke-width="1" opacity="1" d="M 874.5 178 L 876.5 179 L 878.5 178 L 881.5 179 L 883.5 178 L 900.5 178 L 902.5 179 L 906.5 178 L 908.5 179 L 910.5 178 L 919.5 180 L 921.5 179 L 929.5 181 L 931.5 181 L 941.5 183 L 943.5 183 L 950.5 185 L 952.5 185 L 955.5 186 L 957.5 186 L 962.5 188 L 964.5 188 L 978.5 192 L 980.5 194 Q 982 191.5 983.5 195 L 986.5 195 L 994.5 200 L 997.5 200 L 1004 203 Q 1002.9 205.7 1005.5 205 L 1023 215.5 L 1022 218.5 L 1009.5 233 L 1007 234.5 L 996.5 248 Q 993.9 247.3 995 250 L 993 250 L 993 251.5 L 983.5 263 L 981 264.5 L 979 269 L 975 271.5 L 972 277 L 969 278.5 L 965.5 284 L 962.5 286 L 948.5 277 L 946.5 277 L 938.5 273 L 934.5 273 L 932.5 271 L 930.5 271 L 911.5 267 L 909.5 267 Q 903.2 268.7 901.5 266 L 899.5 266 L 897.5 267 L 895.5 266 L 892.5 267 L 883.5 267 L 882.5 268 L 880.5 268 Q 875.8 266.8 874.5 269 L 872.5 269 L 869.5 270 L 867.5 270 Q 843.2 275.2 827 288.5 Q 827.8 290.8 825.5 290 L 816 298.5 L 814 301.5 L 805 312.5 L 795 332.5 L 795 334.5 L 791 346.5 L 791 348.5 L 790 352.5 L 790 354.5 L 789 360.5 L 789 362.5 L 789 387.5 L 790 388.5 L 789 390.5 L 791 395.5 L 791 397.5 L 792 406.5 L 794 409.5 L 794 411.5 L 796 415.5 Q 793.5 417 797 418.5 Q 801.9 435.6 812.5 447 Q 814.8 446.3 814 448.5 L 816 452 Q 818.7 450.9 818 453.5 L 831.5 465 L 843.5 471 L 846.5 474 Q 848 471.5 849.5 475 L 866.5 481 L 868.5 481 L 884.5 484 L 888.5 484 L 904.5 484 L 907.5 483 L 909.5 483 Q 914.2 484.2 915.5 482 L 918.5 483 L 922.5 481 L 924.5 481 L 932.5 480 L 935.5 478 Q 937 480.5 938.5 477 Q 949 476 955 470.5 L 955 419 L 908 419 L 908 345 L 1049 345 L 1049 523.5 L 1045 526 Q 1046.1 528.7 1043.5 528 L 1030.5 537 L 1006.5 549 L 976.5 560 L 975.5 559 L 971.5 561 L 968.5 561 L 962.5 564 L 960.5 564 L 953.5 566 L 951.5 566 L 948.5 567 L 946.5 567 L 931.5 570 L 929.5 570 Q 924 568.5 922.5 571 L 920.5 571 L 916.5 572 L 914.5 571 L 913.5 572 L 901.5 572 L 900.5 573 L 898.5 573 L 896.5 572 L 895.5 573 L 885.5 573 L 880.5 572 L 878.5 572 L 868.5 572 L 867.5 571 L 865.5 572 L 859.5 570 L 855.5 570 L 850.5 569 L 848.5 569 L 839.5 567 L 837.5 567 L 835.5 566 L 833.5 566 L 823.5 563 L 821.5 563 L 813.5 561 L 805.5 557 L 803.5 557 L 787.5 549 L 785.5 549 L 764 537 Q 765.1 534.3 762.5 535 L 758 533 Q 759.1 530.3 756.5 531 L 743 521 L 739.5 516 Q 737.3 516.8 738 514.5 L 735 513 L 735 511 L 733 511 L 733 509 L 731 509 Q 732.1 506.3 729.5 507 L 714.5 487 Q 712.3 487.8 713 485.5 L 707 474 Q 704 475.3 705 471.5 L 692 445.5 L 690 435.5 L 688 432.5 L 686 419.5 L 684 416.5 L 684 414.5 L 683 402.5 L 681 395.5 L 682 393.5 L 682 391.5 Q 679.5 388 681 380.5 L 680 379.5 L 681 378.5 L 681 361.5 L 682 360.5 L 682 356.5 L 681 354.5 L 683 347.5 L 682 345.5 L 684 341.5 L 684 339.5 L 687 321.5 L 692 308.5 Q 689.5 307 693 305.5 L 693 302.5 L 700 289.5 L 701 284 Q 703.7 285.1 703 282.5 L 703.5 280 Q 706.1 280.8 705 277.5 L 716 260 Q 718.7 261.1 718 258.5 L 734.5 239 L 737 237.5 L 738.5 235 Q 740.8 235.8 740 233.5 L 744 231 Q 742.9 228.3 745.5 229 L 748 228 Q 746.9 225.3 749.5 226 L 751 223 L 753.5 223 L 758 220 Q 759.1 216.7 755 218 Q 756.1 220.7 753.5 220 L 743 225 Q 744.1 227.7 741.5 227 L 730 234 Q 731.1 236.7 728.5 236 L 725 238 Q 726.1 240.7 723.5 240 L 718 244 L 718 246 L 716 246 Q 717.1 248.7 714.5 248 L 713 251 L 709 253.5 L 707.5 256 Q 704.9 255.3 706 258 L 704 258 L 704 259.5 L 698 265.5 L 698 268 L 695 269.5 L 695 271.5 Q 686.3 279.8 681.5 292 L 680.5 291 L 603 291 L 603 557 L 488 557 L 488 291 L 365.5 291 L 361 294.5 L 359 297.5 L 356 299 L 356 301 Q 353.3 299.9 354 302.5 L 344 312.5 L 344 314 L 338 318.5 L 336.5 321 Q 334.3 320.3 335 322.5 L 330 329 Q 327.3 327.9 328 330.5 L 324 333 Q 325.1 335.7 322.5 335 L 321 338 Q 318.3 336.9 319 339.5 L 310 348.5 L 310 350 Q 307.3 348.9 308 351.5 L 305 353 L 305 355 Q 302.3 353.9 303 356.5 L 298 362.5 L 299 365 Q 301.7 363.9 301 366.5 L 307 375 Q 310 373.8 309 377.5 L 312 379 L 323 396 Q 325.7 394.9 325 397.5 L 333 409 L 336 410.5 L 340 418 Q 342.7 416.9 342 419.5 L 343 422 L 346 423.5 L 354.5 436 Q 356.8 435.3 356 437.5 L 357 440 Q 359.7 438.9 359 441.5 L 361 445 Q 363.7 443.9 363 446.5 L 364 449 L 367 450.5 L 367 453 Q 369.7 451.9 369 454.5 L 373 461 L 376 462.5 L 383 471.5 L 384 475 L 387 476.5 L 394 488 Q 396.7 486.9 396 489.5 L 400 496 Q 402.7 494.9 402 497.5 L 425.5 528 Q 427.8 527.3 427 529.5 L 432 537 Q 434.7 535.9 434 538.5 L 441 549 Q 443.7 547.9 443 550.5 L 448 556.5 L 320.5 557 L 312 545 L 309 543.5 L 308 540 Q 305.3 541.1 306 538.5 L 296.5 526 Q 294.3 526.8 295 524.5 L 284.5 511 Q 282.3 511.8 283 509.5 L 282 507 Q 279.3 508.1 280 505.5 L 275 498 Q 272.3 499.1 273 496.5 L 270 492 Q 267.3 493.1 268 490.5 L 264 484 Q 261.3 485.1 262 482.5 L 261 480 Q 258.3 481.1 259 478.5 L 252 469 Q 249.3 470.1 250 467.5 L 245 460 Q 242.3 461.1 243 458.5 Q 238.6 456.1 238 451 Q 235.3 452.1 236 449.5 L 234 446 Q 231.3 447.1 232 444.5 L 231 442 L 228 440.5 L 226.5 438 L 222 441.5 L 220.5 444 L 217.5 446 L 216 449 Q 213.3 447.9 214 450.5 L 208 458 L 204 460.5 Q 204.8 462.8 202.5 462 L 196.5 469 Q 194.3 468.3 195 470.5 L 190 477 L 188 477 L 188 479 L 186 479 L 186 481 L 184 481 Q 185.1 483.7 182.5 483 L 181 486 L 179 486.5 L 180 487.5 L 180 557 L 79.5 557 L 79 556.5 L 79 198 L 180 198 L 180 345.5 L 184 342.5 Q 183.3 340.3 185.5 341 L 187 338 L 191 335.5 L 193 332.5 L 203.5 321 Q 205.8 321.8 205 319.5 L 209 317 L 213 310 L 215 310 L 215 308 Q 217.7 309.1 217 306.5 L 226.5 296 Q 228.8 296.8 228 294.5 L 233 290.5 L 234.5 288 Q 236.8 288.8 236 286.5 L 239 282 L 242 280.5 L 244.5 277 L 248 274.5 L 256.5 264 L 262 259.5 L 272 247 Q 274.7 248.1 274 245.5 L 280.5 238 L 282 238 L 282 236 L 284 236 L 284 234 L 286 234 L 286 232 Q 288.7 233.1 288 230.5 L 302.5 215 Q 304.8 215.8 304 213.5 L 308 208 L 310 208 Q 308.9 205.3 311.5 206 L 318.5 198 L 787.5 198 L 788.5 197 L 790.5 197 Q 795.2 198.3 796.5 196 Q 798 198.5 799.5 195 L 805.5 194 L 807.5 192 L 810.5 192 L 822.5 187 L 826.5 187 L 849.5 181 L 851.5 181 L 857.5 181 L 864.5 179 L 866.5 179 Q 872.8 180.8 874.5 178 Z " /></svg>